<svg height="1518" width="720" xmlns="http://www.w3.org/2000/svg">
<rect height="1518" fill="#555" width="720"></rect>
<text fill="#7f7" font-family="Courier New" font-size="12" xml:space="preserve">
<tspan x="10" y="26">└─┬ gulp-grunt@0.5.5 </tspan>
<tspan x="10" y="42">  └─┬ grunt@1.0.1 </tspan>
<tspan x="10" y="58">    ├── coffee-script@1.10.0 </tspan>
<tspan x="10" y="74">    ├─┬ dateformat@1.0.12 </tspan>
<tspan x="10" y="90">    │ ├── get-stdin@4.0.1 </tspan>
<tspan x="10" y="106">    │ └─┬ meow@3.7.0 </tspan>
<tspan x="10" y="122">    │   ├─┬ camelcase-keys@2.1.0 </tspan>
<tspan x="10" y="138">    │   │ └── camelcase@2.1.1 </tspan>
<tspan x="10" y="154">    │   ├── decamelize@1.2.0 </tspan>
<tspan x="10" y="170">    │   ├─┬ loud-rejection@1.6.0 </tspan>
<tspan x="10" y="186">    │   │ ├─┬ currently-unhandled@0.4.1 </tspan>
<tspan x="10" y="202">    │   │ │ └── array-find-index@1.0.2 </tspan>
<tspan x="10" y="218">    │   │ └── signal-exit@3.0.2 </tspan>
<tspan x="10" y="234">    │   ├── map-obj@1.0.1 </tspan>
<tspan x="10" y="250">    │   ├── minimist@1.2.0 </tspan>
<tspan x="10" y="266">    │   ├─┬ normalize-package-data@2.3.6 </tspan>
<tspan x="10" y="282">    │   │ ├── hosted-git-info@2.4.1 </tspan>
<tspan x="10" y="298">    │   │ ├─┬ is-builtin-module@1.0.0 </tspan>
<tspan x="10" y="314">    │   │ │ └── builtin-modules@1.1.1 </tspan>
<tspan x="10" y="330">    │   │ ├── semver@5.3.0 </tspan>
<tspan x="10" y="346">    │   │ └─┬ validate-npm-package-license@3.0.1 </tspan>
<tspan x="10" y="362">    │   │   ├─┬ spdx-correct@1.0.2 </tspan>
<tspan x="10" y="378">    │   │   │ └── spdx-license-ids@1.2.2 </tspan>
<tspan x="10" y="394">    │   │   └── spdx-expression-parse@1.0.4 </tspan>
<tspan x="10" y="410">    │   ├── object-assign@4.1.1 </tspan>
<tspan x="10" y="426">    │   ├─┬ read-pkg-up@1.0.1 </tspan>
<tspan x="10" y="442">    │   │ ├─┬ find-up@1.1.2 </tspan>
<tspan x="10" y="458">    │   │ │ ├── path-exists@2.1.0 </tspan>
<tspan x="10" y="474">    │   │ │ └─┬ pinkie-promise@2.0.1 </tspan>
<tspan x="10" y="490">    │   │ │   └── pinkie@2.0.4 </tspan>
<tspan x="10" y="506">    │   │ └─┬ read-pkg@1.1.0 </tspan>
<tspan x="10" y="522">    │   │   ├─┬ load-json-file@1.1.0 </tspan>
<tspan x="10" y="538">    │   │   │ ├── graceful-fs@4.1.11 </tspan>
<tspan x="10" y="554">    │   │   │ ├─┬ parse-json@2.2.0 </tspan>
<tspan x="10" y="570">    │   │   │ │ └─┬ error-ex@1.3.1 </tspan>
<tspan x="10" y="586">    │   │   │ │   └── is-arrayish@0.2.1 </tspan>
<tspan x="10" y="602">    │   │   │ ├── pify@2.3.0 </tspan>
<tspan x="10" y="618">    │   │   │ └─┬ strip-bom@2.0.0 </tspan>
<tspan x="10" y="634">    │   │   │   └── is-utf8@0.2.1 </tspan>
<tspan x="10" y="650">    │   │   └── path-type@1.1.0 </tspan>
<tspan x="10" y="666">    │   ├─┬ redent@1.0.0 </tspan>
<tspan x="10" y="682">    │   │ ├─┬ indent-string@2.1.0 </tspan>
<tspan x="10" y="698">    │   │ │ └─┬ repeating@2.0.1 </tspan>
<tspan x="10" y="714">    │   │ │   └─┬ is-finite@1.0.2 </tspan>
<tspan x="10" y="730">    │   │ │     └── number-is-nan@1.0.1 </tspan>
<tspan x="10" y="746">    │   │ └── strip-indent@1.0.1 </tspan>
<tspan x="10" y="762">    │   └── trim-newlines@1.0.0 </tspan>
<tspan x="10" y="778">    ├── eventemitter2@0.4.14 </tspan>
<tspan x="10" y="794">    ├── exit@0.1.2 </tspan>
<tspan x="10" y="810">    ├─┬ findup-sync@0.3.0 </tspan>
<tspan x="10" y="826">    │ └── glob@5.0.15 </tspan>
<tspan x="10" y="842">    ├─┬ glob@7.0.6 </tspan>
<tspan x="10" y="858">    │ ├── fs.realpath@1.0.0 </tspan>
<tspan x="10" y="874">    │ ├─┬ inflight@1.0.6 </tspan>
<tspan x="10" y="890">    │ │ └── wrappy@1.0.2 </tspan>
<tspan x="10" y="906">    │ ├── inherits@2.0.3 </tspan>
<tspan x="10" y="922">    │ └── once@1.4.0 </tspan>
<tspan x="10" y="938">    ├─┬ grunt-cli@1.2.0 </tspan>
<tspan x="10" y="954">    │ └── resolve@1.1.7 </tspan>
<tspan x="10" y="970">    ├── grunt-known-options@1.1.0 </tspan>
<tspan x="10" y="986">    ├─┬ grunt-legacy-log@1.0.0 </tspan>
<tspan x="10" y="1002">    │ ├── colors@1.1.2 </tspan>
<tspan x="10" y="1018">    │ ├─┬ grunt-legacy-log-utils@1.0.0 </tspan>
<tspan x="10" y="1034">    │ │ ├─┬ chalk@1.1.3 </tspan>
<tspan x="10" y="1050">    │ │ │ ├── ansi-styles@2.2.1 </tspan>
<tspan x="10" y="1066">    │ │ │ ├── escape-string-regexp@1.0.5 </tspan>
<tspan x="10" y="1082">    │ │ │ ├─┬ has-ansi@2.0.0 </tspan>
<tspan x="10" y="1098">    │ │ │ │ └── ansi-regex@2.1.1 </tspan>
<tspan x="10" y="1114">    │ │ │ ├── strip-ansi@3.0.1 </tspan>
<tspan x="10" y="1130">    │ │ │ └── supports-color@2.0.0 </tspan>
<tspan x="10" y="1146">    │ │ └── lodash@4.3.0 </tspan>
<tspan x="10" y="1162">    │ ├── hooker@0.2.3 </tspan>
<tspan x="10" y="1178">    │ ├── lodash@3.10.1 </tspan>
<tspan x="10" y="1194">    │ └── underscore.string@3.2.3 </tspan>
<tspan x="10" y="1210">    ├─┬ grunt-legacy-util@1.0.0 </tspan>
<tspan x="10" y="1226">    │ ├── async@1.5.2 </tspan>
<tspan x="10" y="1242">    │ ├── getobject@0.1.0 </tspan>
<tspan x="10" y="1258">    │ ├── lodash@4.3.0 </tspan>
<tspan x="10" y="1274">    │ └─┬ which@1.2.14 </tspan>
<tspan x="10" y="1290">    │   └── isexe@2.0.0 </tspan>
<tspan x="10" y="1306">    ├── iconv-lite@0.4.15 </tspan>
<tspan x="10" y="1322">    ├─┬ js-yaml@3.5.5 </tspan>
<tspan x="10" y="1338">    │ ├─┬ argparse@1.0.9 </tspan>
<tspan x="10" y="1354">    │ │ └── sprintf-js@1.0.3 </tspan>
<tspan x="10" y="1370">    │ └── esprima@2.7.3 </tspan>
<tspan x="10" y="1386">    ├─┬ minimatch@3.0.3 </tspan>
<tspan x="10" y="1402">    │ └─┬ brace-expansion@1.1.6 </tspan>
<tspan x="10" y="1418">    │   ├── balanced-match@0.4.2 </tspan>
<tspan x="10" y="1434">    │   └── concat-map@0.0.1 </tspan>
<tspan x="10" y="1450">    ├─┬ nopt@3.0.6 </tspan>
<tspan x="10" y="1466">    │ └── abbrev@1.1.0 </tspan>
<tspan x="10" y="1482">    ├── path-is-absolute@1.0.1 </tspan>
<tspan x="10" y="1498">    └── rimraf@2.2.8</tspan>
</text>
</svg>
